HIERARCHY
ROOT Hips
{
  OFFSET 5.72205e-005 65.662 3.42586
  CHANNELS 6 Xposition Yposition Zposition Zrotation Xrotation Yrotation
  JOINT Chest
  {
    OFFSET 0 8.7983 -4.7612
    CHANNELS 6 Xposition Yposition Zposition Zrotation Xrotation Yrotation
    JOINT Chest2
    {
      OFFSET 0 8.0291 0.4195
      CHANNELS 6 Xposition Yposition Zposition Zrotation Xrotation Yrotation
      JOINT Chest3
      {
        OFFSET 0 9.9351 -2.2114
        CHANNELS 6 Xposition Yposition Zposition Zrotation Xrotation Yrotation
        JOINT Neck
        {
          OFFSET 0 22.3885 -0.4656
          CHANNELS 6 Xposition Yposition Zposition Zrotation Xrotation Yrotation
          JOINT Head
          {
            OFFSET -0.0001 12.643 3.4389
            CHANNELS 6 Xposition Yposition Zposition Zrotation Xrotation Yrotation
            End Site
            {
              OFFSET 0.0001 17.6655 0.5274
            }
          }
        }
        JOINT LeftCollar
        {
          OFFSET 2.2603 21.606 7.4023
          CHANNELS 6 Xposition Yposition Zposition Zrotation Xrotation Yrotation
          JOINT LeftShoulder
          {
            OFFSET 13.5163 -1.1332 -5.0146
            CHANNELS 6 Xposition Yposition Zposition Zrotation Xrotation Yrotation
            JOINT LeftElbow
            {
              OFFSET -0.0995 -28.05 -0.2431
              CHANNELS 6 Xposition Yposition Zposition Zrotation Xrotation Yrotation
              JOINT LeftWrist
              {
                OFFSET 0.0679 -23.3996 -0.1402
                CHANNELS 6 Xposition Yposition Zposition Zrotation Xrotation Yrotation
                JOINT LeftFinger1
                {
                  OFFSET 0.7932 -9.069 2.5189
                  CHANNELS 6 Xposition Yposition Zposition Zrotation Xrotation Yrotation
                  JOINT LeftFinger11
                  {
                    OFFSET -0.8272 -3.3923 0.5977
                    CHANNELS 6 Xposition Yposition Zposition Zrotation Xrotation Yrotation
                    JOINT LeftFinger12
                    {
                      OFFSET -0.5649 -2.3158 0.4082
                      CHANNELS 6 Xposition Yposition Zposition Zrotation Xrotation Yrotation
                      End Site
                      {
                        OFFSET -0.4919 -1.6479 0.2673
                      }
                    }
                  }
                }
                JOINT LeftFinger2
                {
                  OFFSET 0.9159 -9.2044 0.2193
                  CHANNELS 6 Xposition Yposition Zposition Zrotation Xrotation Yrotation
                  JOINT LeftFinger21
                  {
                    OFFSET 0.0117 -4.1944 -0.0248
                    CHANNELS 6 Xposition Yposition Zposition Zrotation Xrotation Yrotation
                    JOINT LeftFinger22
                    {
                      OFFSET 0.0071 -2.3249 -0.0142
                      CHANNELS 6 Xposition Yposition Zposition Zrotation Xrotation Yrotation
                      End Site
                      {
                        OFFSET -0.1475 -2.0882 0.0028
                      }
                    }
                  }
                }
                JOINT LeftFinger3
                {
                  OFFSET 0.6113 -8.7231 -2.0637
                  CHANNELS 6 Xposition Yposition Zposition Zrotation Xrotation Yrotation
                  JOINT LeftFinger31
                  {
                    OFFSET -0.1927 -3.8059 -0.2383
                    CHANNELS 6 Xposition Yposition Zposition Zrotation Xrotation Yrotation
                    JOINT LeftFinger32
                    {
                      OFFSET -0.1091 -2.1688 -0.1362
                      CHANNELS 6 Xposition Yposition Zposition Zrotation Xrotation Yrotation
                      End Site
                      {
                        OFFSET -0.2358 -1.9176 -0.0906
                      }
                    }
                  }
                }
                JOINT LeftFinger4
                {
                  OFFSET -0.6151 -8.0947 -3.5641
                  CHANNELS 6 Xposition Yposition Zposition Zrotation Xrotation Yrotation
                  JOINT LeftFinger41
                  {
                    OFFSET -0.4882 -2.341 -0.6462
                    CHANNELS 6 Xposition Yposition Zposition Zrotation Xrotation Yrotation
                    JOINT LeftFinger42
                    {
                      OFFSET -0.3575 -1.7167 -0.4742
                      CHANNELS 6 Xposition Yposition Zposition Zrotation Xrotation Yrotation
                      End Site
                      {
                        OFFSET -0.4187 -1.5237 -0.3496
                      }
                    }
                  }
                }
                JOINT LeftFinger0
                {
                  OFFSET -1.42 -1.8761 1.4223
                  CHANNELS 6 Xposition Yposition Zposition Zrotation Xrotation Yrotation
                  JOINT LeftFinger01
                  {
                    OFFSET -1.1471 -3.4929 2.6334
                    CHANNELS 6 Xposition Yposition Zposition Zrotation Xrotation Yrotation
                    JOINT LeftFinger02
                    {
                      OFFSET -0.823 -2.3 1.6571
                      CHANNELS 6 Xposition Yposition Zposition Zrotation Xrotation Yrotation
                      End Site
                      {
                        OFFSET -0.5822 -1.6914 1.1582
                      }
                    }
                  }
                }
              }
            }
          }
        }
        JOINT RightCollar
        {
          OFFSET -2.2603 21.606 7.4023
          CHANNELS 6 Xposition Yposition Zposition Zrotation Xrotation Yrotation
          JOINT RightShoulder
          {
            OFFSET -13.5187 -1.1334 -5.0155
            CHANNELS 6 Xposition Yposition Zposition Zrotation Xrotation Yrotation
            JOINT RightElbow
            {
              OFFSET 0.0994 -28.0499 -0.2431
              CHANNELS 6 Xposition Yposition Zposition Zrotation Xrotation Yrotation
              JOINT RightWrist
              {
                OFFSET -0.0679 -23.3996 -0.1402
                CHANNELS 6 Xposition Yposition Zposition Zrotation Xrotation Yrotation
                JOINT RightFinger1
                {
                  OFFSET -0.7932 -9.0691 2.5189
                  CHANNELS 6 Xposition Yposition Zposition Zrotation Xrotation Yrotation
                  JOINT RightFinger11
                  {
                    OFFSET 0.8272 -3.3923 0.5977
                    CHANNELS 6 Xposition Yposition Zposition Zrotation Xrotation Yrotation
                    JOINT RightFinger12
                    {
                      OFFSET 0.565 -2.3158 0.4082
                      CHANNELS 6 Xposition Yposition Zposition Zrotation Xrotation Yrotation
                      End Site
                      {
                        OFFSET 0.4919 -1.6479 0.2673
                      }
                    }
                  }
                }
                JOINT RightFinger2
                {
                  OFFSET -0.916 -9.2044 0.2193
                  CHANNELS 6 Xposition Yposition Zposition Zrotation Xrotation Yrotation
                  JOINT RightFinger21
                  {
                    OFFSET -0.0117 -4.1944 -0.0248
                    CHANNELS 6 Xposition Yposition Zposition Zrotation Xrotation Yrotation
                    JOINT RightFinger22
                    {
                      OFFSET -0.0071 -2.3249 -0.0142
                      CHANNELS 6 Xposition Yposition Zposition Zrotation Xrotation Yrotation
                      End Site
                      {
                        OFFSET 0.1475 -2.0882 0.0028
                      }
                    }
                  }
                }
                JOINT RightFinger3
                {
                  OFFSET -0.6113 -8.7231 -2.0637
                  CHANNELS 6 Xposition Yposition Zposition Zrotation Xrotation Yrotation
                  JOINT RightFinger31
                  {
                    OFFSET 0.1927 -3.8059 -0.2383
                    CHANNELS 6 Xposition Yposition Zposition Zrotation Xrotation Yrotation
                    JOINT RightFinger32
                    {
                      OFFSET 0.1091 -2.1688 -0.1362
                      CHANNELS 6 Xposition Yposition Zposition Zrotation Xrotation Yrotation
                      End Site
                      {
                        OFFSET 0.2358 -1.9176 -0.0906
                      }
                    }
                  }
                }
                JOINT RightFinger4
                {
                  OFFSET 0.6151 -8.0947 -3.564
                  CHANNELS 6 Xposition Yposition Zposition Zrotation Xrotation Yrotation
                  JOINT RightFinger41
                  {
                    OFFSET 0.4882 -2.341 -0.6462
                    CHANNELS 6 Xposition Yposition Zposition Zrotation Xrotation Yrotation
                    JOINT RightFinger42
                    {
                      OFFSET 0.3574 -1.7166 -0.4742
                      CHANNELS 6 Xposition Yposition Zposition Zrotation Xrotation Yrotation
                      End Site
                      {
                        OFFSET 0.4187 -1.5237 -0.3496
                      }
                    }
                  }
                }
                JOINT RightFinger0
                {
                  OFFSET 1.4199 -1.8761 1.4221
                  CHANNELS 6 Xposition Yposition Zposition Zrotation Xrotation Yrotation
                  JOINT RightFinger01
                  {
                    OFFSET 1.1472 -3.4929 2.6336
                    CHANNELS 6 Xposition Yposition Zposition Zrotation Xrotation Yrotation
                    JOINT RightFinger02
                    {
                      OFFSET 0.8229 -2.3 1.6571
                      CHANNELS 6 Xposition Yposition Zposition Zrotation Xrotation Yrotation
                      End Site
                      {
                        OFFSET 0.5822 -1.6914 1.1582
                      }
                    }
                  }
                }
              }
            }
          }
        }
      }
    }
  }
  JOINT RightHip
  {
    OFFSET -9.412 3.9771 -0.7758
    CHANNELS 6 Xposition Yposition Zposition Zrotation Xrotation Yrotation
    JOINT RightKnee
    {
      OFFSET -0.7531 -40.938 0
      CHANNELS 6 Xposition Yposition Zposition Zrotation Xrotation Yrotation
      JOINT RightAnkle
      {
        OFFSET 0 -40.1986 0
        CHANNELS 6 Xposition Yposition Zposition Zrotation Xrotation Yrotation
        JOINT RightToe
        {
          OFFSET 0 -4.4182 9.239
          CHANNELS 6 Xposition Yposition Zposition Zrotation Xrotation Yrotation
          End Site
          {
            OFFSET 0 0 6.1981
          }
        }
      }
    }
  }
  JOINT LeftHip
  {
    OFFSET 9.4119 3.9773 -0.7758
    CHANNELS 6 Xposition Yposition Zposition Zrotation Xrotation Yrotation
    JOINT LeftKnee
    {
      OFFSET 0.7532 -40.9383 0
      CHANNELS 6 Xposition Yposition Zposition Zrotation Xrotation Yrotation
      JOINT LeftAnkle
      {
        OFFSET 0 -40.1986 0
        CHANNELS 6 Xposition Yposition Zposition Zrotation Xrotation Yrotation
        JOINT LeftToe
        {
          OFFSET 0 -4.4182 9.239
          CHANNELS 6 Xposition Yposition Zposition Zrotation Xrotation Yrotation
          End Site
          {
            OFFSET 0 0 6.1981
          }
        }
      }
    }
  }
}
MOTION
Frames:	4
Frame Time:	0.0333333
-7.81221 -3.18034 -37.7705 -89.9975 76.1253 -0.00510558 0 8.7983 -4.7612 3.1058 2.84858 -1.10985 -2.22045e-016 8.0291 0.4195 6.27775 5.63215 -2.37713 0 9.9351 -2.2114 6.27775 5.63217 -2.37715 1.33227e-015 22.3885 -0.4656 13.0152 3.56873 27.3978 -0.0001 12.643 3.4389 10.6981 -26.696 -3.1277 2.2603 21.606 7.4023 69.8125 20.8282 -63.1953 13.5163 -1.1332 -5.0146 115.977 -30.1616 25.7408 -0.0995 -28.05 -0.2431 -15.6495 -45.9849 31.0791 0.0679 -23.3996 -0.1402 39.7773 -49.119 85.0855 0.7932 -9.069 2.5189 9.93923e-016 0 -1.19271e-015 -0.8272 -3.3923 0.5977 2.38542e-015 0 -0 -0.5649 -2.3158 0.4082 1.98785e-016 6.36111e-015 -1.19271e-015 0.9159 -9.2044 0.2193 9.93923e-016 0 -1.19271e-015 0.0117 -4.1944 -0.0248 -0.0127734 0.00231951 8.77759e-005 0.0071 -2.3249 -0.0142 -3.97569e-016 3.18055e-015 -7.95139e-016 0.6113 -8.7231 -2.0637 9.93923e-016 0 -1.19271e-015 -0.1927 -3.8059 -0.2383 -0.0160482 0.0029995 0.000857548 -0.1091 -2.1688 -0.1362 -9.93923e-016 0 7.95139e-016 -0.6151 -8.0947 -3.5641 9.93923e-016 0 -1.19271e-015 -0.4882 -2.341 -0.6462 -0.0125147 0.00310919 0.00280995 -0.3575 -1.7167 -0.4742 -5.96354e-016 -3.18055e-015 7.95139e-016 -1.42 -1.8761 1.4223 9.93923e-016 0 -1.19271e-015 -1.1471 -3.4929 2.6334 2.38542e-015 0 -0 -0.823 -2.3 1.6571 1.98785e-016 6.36111e-015 -1.19271e-015 -2.2603 21.606 7.4023 7.56322 -20.5615 34.5308 -13.5187 -1.1334 -5.0155 -10.6086 1.79804 -21.9154 0.0994 -28.0499 -0.2431 -14.2375 -62.9867 -73.9086 -0.0679 -23.3996 -0.1402 84.4201 73.655 -16.9631 -0.7932 -9.0691 2.5189 9.93923e-016 -1.19271e-015 3.18055e-015 0.8272 -3.3923 0.5977 1.10348e-031 -1.98785e-015 3.18055e-015 0.565 -2.3158 0.4082 1.98785e-016 -1.59028e-015 3.18055e-015 -0.916 -9.2044 0.2193 9.93923e-016 -1.19271e-015 3.18055e-015 -0.0117 -4.1944 -0.0248 0.0129248 0.00230958 -9.0938e-005 -0.0071 -2.3249 -0.0142 -2.18663e-015 -7.95139e-016 9.54166e-015 -0.6113 -8.7231 -2.0637 9.93923e-016 -1.19271e-015 3.18055e-015 0.1927 -3.8059 -0.2383 0.0163776 0.00304198 -0.000877134 0.1091 -2.1688 -0.1362 -1.39149e-015 0 -3.18055e-015 0.6151 -8.0947 -3.564 9.93923e-016 -1.19271e-015 3.18055e-015 0.4882 -2.341 -0.6462 0.014549 0.00367105 -0.00325275 0.3574 -1.7166 -0.4742 -3.40297e-006 -3.88739e-007 -1.1398e-007 1.4199 -1.8761 1.4221 9.93923e-016 -1.19271e-015 3.18055e-015 1.1472 -3.4929 2.6336 1.10348e-031 -1.98785e-015 3.18055e-015 0.8229 -2.3 1.6571 1.98785e-016 -1.59028e-015 3.18055e-015 -9.412 3.9771 -0.7758 -2.12419 -11.9358 -0.699346 -0.7531 -40.938 -3.55271e-015 46.1222 52.9762 -41.7896 3.55271e-015 -40.1986 -7.10543e-015 -5.08144 30.8766 1.29785 0 -4.4182 9.239 1.60069e-006 -5.28993e-006 -3.2209e-006 9.4119 3.9773 -0.7758 -1.49025 -23.9441 -1.36202 0.7532 -40.9383 0 -4.61187 12.8569 2.73606 0 -40.1986 7.10543e-015 5.82314 17.6086 1.5031 0 -4.4182 9.239 4.96962e-017 0 6.27414e-016 
-7.66743 -3.18002 -37.8064 -89.9972 76.5436 -0.00534928 -4.44089e-016 8.7983 -4.7612 3.10254 2.67995 -1.10734 6.66134e-016 8.0291 0.4195 6.26647 5.29539 -2.3622 2.22045e-016 9.9351 -2.2114 6.26646 5.29541 -2.3622 0 22.3885 -0.4656 13.0997 3.57984 27.4633 -0.0001 12.643 3.4389 10.7237 -26.7735 -2.93601 2.2603 21.606 7.4023 69.9961 20.9694 -63.4379 13.5163 -1.1332 -5.0146 116.045 -30.2655 25.7766 -0.0995 -28.05 -0.2431 -15.8055 -46.303 30.9485 0.0679 -23.3996 -0.1402 40.0257 -48.9195 85.0607 0.7932 -9.06901 2.5189 -1.59028e-015 0 -0 -0.8272 -3.3923 0.5977 -2.78299e-015 0 -3.97569e-016 -0.5649 -2.3158 0.4082 -1.39149e-015 -3.18055e-015 -0 0.915899 -9.20441 0.2193 -1.59028e-015 0 -0 0.0117 -4.1944 -0.0248 -0.0128175 0.00231946 8.78688e-005 0.0071 -2.3249 -0.0142 -1.98785e-016 0 -3.97569e-016 0.6113 -8.72311 -2.0637 -1.59028e-015 0 -0 -0.1927 -3.8059 -0.2383 -0.0160549 0.00299197 0.000859502 -0.1091 -2.1688 -0.1362 2.78299e-015 -1.59028e-014 -1.19271e-015 -0.6151 -8.09471 -3.5641 -1.59028e-015 0 -0 -0.4882 -2.341 -0.6462 -0.0125238 0.00309922 0.00281317 -0.3575 -1.7167 -0.4742 -1.39149e-015 0 -3.97569e-016 -1.42 -1.8761 1.4223 -1.59028e-015 0 -0 -1.1471 -3.4929 2.6334 -2.78299e-015 0 -3.97569e-016 -0.823 -2.3 1.6571 -1.39149e-015 -3.18055e-015 -0 -2.2603 21.606 7.4023 7.5378 -20.1618 34.2489 -13.5187 -1.1334 -5.0155 -10.4408 1.85846 -21.9085 0.0994 -28.0499 -0.2431 -14.2971 -63.2107 -73.9381 -0.0679 -23.3996 -0.1402 84.8241 73.8192 -17.3547 -0.7932 -9.06911 2.5189 3.18746e-007 -1.95612e-006 1.56667e-006 0.8272 -3.3923 0.5977 3.97569e-016 -3.97569e-016 -6.36111e-015 0.565 -2.3158 0.4082 -2.20695e-032 -3.97569e-016 -3.18055e-015 -0.916 -9.20441 0.2193 3.18746e-007 -1.95612e-006 1.56667e-006 -0.0117 -4.1944 -0.0248 0.0129572 0.00231822 -9.25836e-005 -0.0071 -2.3249 -0.0142 2.18663e-015 -1.19271e-015 -0 -0.6113 -8.72311 -2.0637 3.18746e-007 -1.95612e-006 1.56667e-006 0.1927 -3.8059 -0.2383 0.0162897 0.00302774 -0.000875043 0.1091 -2.1688 -0.1362 7.95139e-016 0 3.18055e-015 0.6151 -8.09471 -3.564 3.18746e-007 -1.95612e-006 1.56667e-006 0.4882 -2.341 -0.6462 0.0146292 0.00369075 -0.00327332 0.3574 -1.7166 -0.4742 0 0 -0 1.4199 -1.8761 1.4221 3.18746e-007 -1.95612e-006 1.56667e-006 1.1472 -3.4929 2.6336 3.97569e-016 -3.97569e-016 -6.36111e-015 0.8229 -2.3 1.6571 -2.20695e-032 -3.97569e-016 -3.18055e-015 -9.412 3.9771 -0.7758 -2.3367 -12.3966 -1.09717 -0.7531 -40.938 -5.32907e-015 46.1352 52.9818 -41.8121 -3.55271e-015 -40.1986 0 -5.49457 30.9477 1.66157 0 -4.4182 9.239 -5.84448e-007 3.22021e-006 -1.54518e-006 9.4119 3.9773 -0.7758 -1.46851 -24.273 -1.34577 0.7532 -40.9383 1.06581e-014 -4.64094 12.5232 2.74336 0 -40.1986 -3.55271e-015 5.85922 17.9122 1.43976 8.88179e-016 -4.4182 9.239 2.11607e-006 1.60159e-005 -1.03228e-005 
-7.52236 -3.17962 -37.842 -89.9969 76.9619 -0.00560104 0 8.7983 -4.7612 3.09901 2.51148 -1.10473 2.22045e-016 8.0291 0.4195 6.25474 4.95893 -2.34718 0 9.9351 -2.2114 6.25477 4.95895 -2.34719 -8.88178e-016 22.3885 -0.4656 13.1841 3.59105 27.5289 -0.0001 12.643 3.4389 10.7496 -26.8508 -2.74422 2.2603 21.606 7.4023 70.1806 21.1099 -63.6812 13.5163 -1.1332 -5.0146 116.114 -30.3693 25.8124 -0.0995 -28.05 -0.2431 -15.9634 -46.6209 30.816 0.0679 -23.3996 -0.1402 40.2733 -48.7201 85.0346 0.7932 -9.069 2.5189 -1.59028e-015 -3.18055e-015 -3.97569e-016 -0.8272 -3.3923 0.5977 -3.15886e-007 1.00868e-006 -1.32899e-006 -0.5649 -2.3158 0.4082 7.22485e-007 -4.03875e-008 -1.54537e-006 0.9159 -9.2044 0.2193 -1.59028e-015 -3.18055e-015 -3.97569e-016 0.0117 -4.1944 -0.0248 -0.0128195 0.00232385 8.25268e-005 0.0071 -2.3249 -0.0142 3.38842e-007 -4.06512e-008 -1.72692e-006 0.6113 -8.7231 -2.0637 -1.59028e-015 -3.18055e-015 -3.97569e-016 -0.1927 -3.8059 -0.2383 -0.0160571 0.002999 0.000854482 -0.1091 -2.1688 -0.1362 3.38864e-007 -4.06369e-008 -1.72692e-006 -0.6151 -8.0947 -3.5641 -1.59028e-015 -3.18055e-015 -3.97569e-016 -0.4882 -2.341 -0.6462 -0.0126206 0.00312944 0.00282454 -0.3575 -1.7167 -0.4742 3.38866e-007 -4.06666e-008 -1.72692e-006 -1.42 -1.8761 1.4223 -1.59028e-015 -3.18055e-015 -3.97569e-016 -1.1471 -3.4929 2.6334 -3.15886e-007 1.00868e-006 -1.32899e-006 -0.823 -2.3 1.6571 7.22485e-007 -4.03875e-008 -1.54537e-006 -2.2603 21.606 7.4023 7.51453 -19.7621 33.968 -13.5187 -1.1334 -5.0155 -10.273 1.91885 -21.9018 0.0994 -28.0499 -0.2431 -14.3575 -63.4347 -73.9684 -0.0679 -23.3996 -0.1402 85.2363 73.9826 -17.7547 -0.7932 -9.0691 2.5189 3.97569e-016 3.97569e-016 3.18055e-015 0.8272 -3.3923 0.5977 -7.95139e-016 0 -0 0.565 -2.3158 0.4082 3.97569e-016 1.59028e-015 3.18055e-015 -0.916 -9.2044 0.2193 3.97569e-016 3.97569e-016 3.18055e-015 -0.0117 -4.1944 -0.0248 0.0129653 0.00231751 -8.58364e-005 -0.0071 -2.3249 -0.0142 -5.96354e-016 -3.97569e-016 3.18055e-015 -0.6113 -8.7231 -2.0637 3.97569e-016 3.97569e-016 3.18055e-015 0.1927 -3.8059 -0.2383 0.0163611 0.00303916 -0.000877888 0.1091 -2.1688 -0.1362 -5.96354e-016 7.95139e-016 -3.18055e-015 0.6151 -8.0947 -3.564 3.97569e-016 3.97569e-016 3.18055e-015 0.4882 -2.341 -0.6462 0.0145294 0.00366668 -0.00324438 0.3574 -1.7166 -0.4742 -1.78906e-015 1.98785e-015 3.18055e-015 1.4199 -1.8761 1.4221 3.97569e-016 3.97569e-016 3.18055e-015 1.1472 -3.4929 2.6336 -7.95139e-016 0 -0 0.8229 -2.3 1.6571 3.97569e-016 1.59028e-015 3.18055e-015 -9.412 3.9771 -0.7758 -2.553 -12.8571 -1.49756 -0.7531 -40.938 -7.10543e-015 46.1492 52.9883 -41.836 0 -40.1986 -1.42109e-014 -5.90853 31.0167 2.02613 0 -4.4182 9.239 -1.8341e-006 8.10096e-007 4.46784e-006 9.4119 3.9773 -0.7758 -1.44648 -24.6019 -1.3293 0.7532 -40.9383 7.10543e-015 -4.66997 12.1892 2.75048 3.55271e-015 -40.1986 3.55271e-015 5.89573 18.2158 1.37609 0 -4.4182 9.239 3.39217e-006 8.41197e-007 -5.47299e-007 
-7.37702 -3.17915 -37.8772 -89.9967 77.3802 -0.00583039 4.44089e-016 8.7983 -4.7612 3.09522 2.34317 -1.10203 4.44089e-016 8.0291 0.4195 6.24264 4.62286 -2.33206 6.66134e-016 9.9351 -2.2114 6.24264 4.62288 -2.33207 -8.88178e-016 22.3885 -0.4656 13.2685 3.60236 27.5944 -0.0001 12.643 3.4389 10.7758 -26.928 -2.55235 2.2603 21.606 7.4023 70.3659 21.2496 -63.9252 13.5163 -1.1332 -5.0146 116.182 -30.4732 25.8486 -0.0995 -28.05 -0.2431 -16.1234 -46.9385 30.6813 0.0679 -23.3996 -0.1402 40.52 -48.5207 85.0073 0.7932 -9.06901 2.5189 6.99512e-007 -4.22372e-008 -2.49972e-006 -0.8272 -3.3923 0.5977 1.12928e-007 1.87219e-009 7.61068e-007 -0.5649 -2.3158 0.4082 2.70813e-007 4.27703e-006 -5.79551e-007 0.9159 -9.20441 0.2193 6.99512e-007 -4.22372e-008 -2.49972e-006 0.0117 -4.1944 -0.0248 -0.0128591 0.00233597 8.39865e-005 0.0071 -2.3249 -0.0142 -9.2543e-007 3.31202e-006 9.77547e-007 0.6113 -8.72311 -2.0637 6.99512e-007 -4.22372e-008 -2.49972e-006 -0.1927 -3.8059 -0.2383 -0.0160397 0.00300328 0.000856737 -0.1091 -2.1688 -0.1362 -2.03177e-007 -3.82132e-008 -5.67895e-007 -0.6151 -8.09471 -3.5641 6.99512e-007 -4.22372e-008 -2.49972e-006 -0.4882 -2.341 -0.6462 -0.0126095 0.0031338 0.00282552 -0.3575 -1.7167 -0.4742 1.80567e-007 -7.94776e-010 -3.86358e-007 -1.42 -1.8761 1.4223 6.99512e-007 -4.22372e-008 -2.49972e-006 -1.1471 -3.4929 2.6334 1.12928e-007 1.87219e-009 7.61068e-007 -0.823 -2.3 1.6571 2.70813e-007 4.27703e-006 -5.79551e-007 -2.2603 21.606 7.4023 7.49339 -19.3623 33.688 -13.5187 -1.1334 -5.0155 -10.1053 1.97928 -21.8953 0.0994 -28.0499 -0.2431 -14.4184 -63.6587 -73.9994 -0.0679 -23.3996 -0.1402 85.6567 74.1451 -18.1628 -0.7932 -9.0691 2.5189 -7.95139e-016 3.97569e-016 3.18055e-015 0.8272 -3.3923 0.5977 -1.98785e-015 3.97569e-016 3.18055e-015 0.565 -2.3158 0.4082 -1.59028e-015 7.95139e-016 -0 -0.916 -9.2044 0.2193 -7.95139e-016 3.97569e-016 3.18055e-015 -0.0117 -4.1944 -0.0248 0.0129346 0.00231271 -8.29348e-005 -0.0071 -2.3249 -0.0142 -3.18925e-007 3.23732e-007 -1.5675e-006 -0.6113 -8.7231 -2.0637 -7.95139e-016 3.97569e-016 3.18055e-015 0.1927 -3.8059 -0.2383 0.0163127 0.00303248 -0.000871456 0.1091 -2.1688 -0.1362 -1.98785e-016 3.97569e-016 6.36111e-015 0.6151 -8.0947 -3.564 -7.95139e-016 3.97569e-016 3.18055e-015 0.4882 -2.341 -0.6462 0.0146124 0.00368811 -0.00326612 0.3574 -1.7166 -0.4742 0 0 -3.18055e-015 1.4199 -1.8761 1.4221 -7.95139e-016 3.97569e-016 3.18055e-015 1.1472 -3.4929 2.6336 -1.98785e-015 3.97569e-016 3.18055e-015 0.8229 -2.3 1.6571 -1.59028e-015 7.95139e-016 -0 -9.412 3.9771 -0.7758 -2.77308 -13.3162 -1.90066 -0.7531 -40.938 5.32907e-015 46.163 52.9947 -41.8597 0 -40.1986 -7.10543e-015 -6.32315 31.0837 2.39145 0 -4.4182 9.239 -2.41704e-006 6.95183e-007 2.92631e-006 9.4119 3.9773 -0.7758 -1.4241 -24.9305 -1.31258 0.7532 -40.9383 0 -4.69891 11.8549 2.75736 -3.55271e-015 -40.1986 0 5.93255 18.5196 1.31213 8.88179e-016 -4.4182 9.239 -4.2263e-006 1.22226e-005 -6.10331e-006 
